<svg width="555" height="589" viewBox="20 0 555 400" fill="none" xmlns="http://www.w3.org/2000/svg">
<mask id="mask0_231_2381" style="mask-type:luminance" maskUnits="userSpaceOnUse" x="64" y="97" width="427" height="452">
<path d="M64.4075 97.5474H490.593V548.955H64.4075V97.5474Z" fill="white"/>
</mask>
<g mask="url(#mask0_231_2381)">
<path d="M473.182 292.648L277.508 119.18L81.8263 292.648V530.625H219.452V406.346C219.452 401.273 223.325 397.154 228.105 397.154H326.903C331.683 397.154 335.556 401.273 335.556 406.346V530.625H473.182V292.648ZM283.431 100.533L487.376 281.326L487.389 281.32C489.437 283.132 490.494 285.743 490.494 288.367V539.814C490.494 544.887 486.618 549.006 481.841 549.006H326.903C322.12 549.006 318.245 544.887 318.245 539.814V415.535H236.764V539.814C236.764 544.887 232.883 549.006 228.105 549.006H73.1678C68.3902 549.006 64.5146 544.887 64.5146 539.814V288.367C64.5146 285.345 65.8904 282.658 68.0209 280.982L271.96 100.197L271.954 100.178C275.354 97.1695 280.289 97.3939 283.431 100.533Z" fill="#100F0D" fill-opacity="0.2"/>
</g>
<mask id="mask1_231_2381" style="mask-type:luminance" maskUnits="userSpaceOnUse" x="0" y="40" width="555" height="265">
<path d="M0.543457 40.1245H554.47V304.68H0.543457V40.1245Z" fill="white"/>
</mask>
<g mask="url(#mask1_231_2381)">
<path d="M540.188 301.727C543.793 305.033 549.24 304.615 552.358 300.792C555.482 296.966 555.088 291.183 551.483 287.868C522.718 261.557 289.172 40.4742 277.765 40.1248L277.719 40.1191H277.288L277.243 40.1248C263.29 40.5566 33.2205 260.702 3.52468 287.868C-0.0805717 291.183 -0.474017 296.966 2.64411 300.792C5.76759 304.615 11.2143 305.033 14.8195 301.727L277.508 61.3971L540.188 301.727Z" fill="#100F0D" fill-opacity="0.2"/>
</g>
<path d="M87.8428 93.1191H149.269V178.722L146.258 181.472L93.865 229.405L79.6608 242.403L79.6019 222.477L79.2191 102.302L79.1897 93.1191H87.8428ZM131.957 111.494H96.496L96.7824 202.548L131.957 170.374V111.494Z" fill="#100F0D" fill-opacity="0.2"/>
</svg>
